<svg id="visual" viewBox="0 0 2080 800" width="2080" height="800" xmlns="http://www.w3.org/2000/svg" xmlns:xlink="http://www.w3.org/1999/xlink" version="1.1"><path d="M0 347L69.3 380.7C138.7 414.3 277.3 481.7 416 474.8C554.7 468 693.3 387 832 399.3C970.7 411.7 1109.3 517.3 1248 502.3C1386.7 487.3 1525.3 351.7 1664 323.3C1802.7 295 1941.3 374 2010.7 413.5L2080 453L2080 0L2010.7 0C1941.3 0 1802.7 0 1664 0C1525.3 0 1386.7 0 1248 0C1109.3 0 970.7 0 832 0C693.3 0 554.7 0 416 0C277.3 0 138.7 0 69.3 0L0 0Z" fill="#1976d2" stroke-linecap="round" stroke-linejoin="miter"></path></svg>